<svg id="Calque_1" data-name="Calque 1" xmlns="http://www.w3.org/2000/svg" viewBox="0 0 572.27 348.45"><defs><style>.cls-1{fill:#8f6bdd;}.cls-2{fill:#8042e0;}.cls-3{fill:#772dbd;}.cls-4{fill:#ffe4f3;}.cls-5{fill:#ffcde3;}.cls-6{fill:#f7a6c1;}.cls-7{fill:#99faff;}.cls-8{fill:#c8faff;}.cls-9{fill:#52efff;}.cls-10{fill:#06d0ff;}.cls-11{fill:#fc709b;}.cls-12{fill:#ab97f2;}.cls-13{fill:#c3b9f9;}.cls-14{fill:#b55434;}.cls-15{fill:#db765a;}.cls-16{fill:#fff;}.cls-17{fill:#eceeff;}.cls-18{fill:#e8e4ff;}.cls-19{fill:#ffe059;}.cls-20{fill:#ffc751;}.cls-21{fill:#fff370;}.cls-22{fill:#73e1ff;}.cls-23{fill:#5cceff;}.cls-24{fill:#ffaf40;}.cls-25{fill:#dbdbdb;}</style></defs><path class="cls-1" d="M279.55,130.46a11,11,0,0,1,2.77-14.12c21.36-16.87,85.57-63.41,144.34-63.41,60.45,0,94.35,36.17,107.17,118,11,70.22,31.38,145.32,38.2,169.55a6.31,6.31,0,0,1-6.08,8H402.67Z"/><path class="cls-2" d="M566,348.45H402.67l-16.28-28.81A178.68,178.68,0,0,0,523.54,145.87,181.65,181.65,0,0,0,522.09,123c5,13.78,8.89,29.7,11.74,47.89,11,70.22,31.38,145.3,38.2,169.54a6.31,6.31,0,0,1-6.08,8Z"/><path class="cls-3" d="M566,348.45H456.8a195.83,195.83,0,0,0,78.32-156.83q0-8.79-.75-17.38c11.11,69.24,30.94,142.33,37.66,166.18A6.32,6.32,0,0,1,566,348.45Z"/><path class="cls-4" d="M486.79,337.23c-22-134.79-36.93-169.8-36.93-169.8s6.64-58.06-25-80.85a8,8,0,0,0-10.06.56c-6.36,5.7-16.73,18.61-18.19,42.93,0,0-87-7.88-104.44,85.87a19.88,19.88,0,0,1-9.31,13.5c-6.13,3.65-13.09,11.79-9.11,29.67,5.08,22.79,42.08,51.76,92.16,44.43V338.8a9.65,9.65,0,0,0,9.65,9.65H477.25a9.66,9.66,0,0,0,9.54-11.22Z"/><path class="cls-5" d="M355.76,162.26C334,172.72,313.89,176.73,309,171.85c25.8-38.72,68.86-41.82,82.8-41.76a4.39,4.39,0,0,1,.27.47c3.07,6.39-13.2,20.58-36.34,31.7Z"/><path class="cls-5" d="M432.75,348.45a228.29,228.29,0,0,0-32.89-237.77c4-12.2,10.26-19.58,14.66-23.53a8.07,8.07,0,0,1,10.09-.55c31.61,22.8,25,80.83,25,80.83s14.9,35,36.92,169.8A9.65,9.65,0,0,1,477,348.45Z"/><path class="cls-6" d="M449,136.19c-6.18-20.1-21.77-35.74-41.31-41.17a47.05,47.05,0,0,1,6.82-7.69,8.07,8.07,0,0,1,10.09-.55C440.55,98.28,446.76,118.73,449,136.19Z"/><path class="cls-7" d="M382.89,131.38,302.06,41a4.69,4.69,0,0,0-8,4.45L328,161.86a4.71,4.71,0,0,0,5.09,3.35c5-.63,14.48-2.76,27.23-9.83s19.57-14,22.75-17.92a4.7,4.7,0,0,0-.15-6.08Z"/><path class="cls-8" d="M301.34,70.46,310,100.21a6.41,6.41,0,0,0,8.46,4.2l.12,0a6.43,6.43,0,0,0,3.87-7.79l-8.67-29.73a6.43,6.43,0,0,0-7.72-4.43l-.13,0a6.42,6.42,0,0,0-4.6,8Z"/><path class="cls-9" d="M383,137.46c-3.18,3.93-10,10.84-22.75,17.92s-22.22,9.2-27.23,9.83a4.69,4.69,0,0,1-5.08-3.35l-2-6.66c8.6-15.2,9.41-40.2.58-65.66C319.34,68.56,307.12,51.87,294,43a4.72,4.72,0,0,1,8.07-1.9l80.82,90.33A4.69,4.69,0,0,1,383,137.46Z"/><path class="cls-10" d="M383,137.46c-3.18,3.93-10,10.84-22.75,17.92l-.22.12a92.62,92.62,0,0,0-1.45-51.24l24.27,27.12A4.69,4.69,0,0,1,383,137.46Z"/><path class="cls-6" d="M402.9,128.61c1.81-7.52,5.24-18.14,11.34-26.71a4.46,4.46,0,0,1,8.05,1.94l4.31,29.61a5.7,5.7,0,0,1-6.16,6.49L410.32,139A8.45,8.45,0,0,1,402.9,128.61Z"/><path class="cls-11" d="M420.44,139.93l-8.53-.79a30.12,30.12,0,0,0,1.6-36.17c.24-.36.48-.72.73-1.07a4.46,4.46,0,0,1,8.05,1.93l4.31,29.62a5.68,5.68,0,0,1-6.16,6.48Z"/><circle class="cls-11" cx="290.68" cy="241.88" r="4.87"/><path class="cls-5" d="M365.91,303.72s27.23-7.74,51.41-40c4.72-6.28,14.75-2.15,13.64,5.63-3.76,26.21-17.76,53.54-65,69.59Z"/><path class="cls-12" d="M368.77,76a9.39,9.39,0,0,0,11.86,5.2c16.75-6.07,32.15-9.14,46-9.14,25.37,0,43.63,7,57.47,22.15.82.9,1.63,1.84,2.43,2.8a9.34,9.34,0,0,0,13.38.93l.14-.13a9.36,9.36,0,0,0,1-13c-17.92-21.62-42.45-31.73-74.42-31.73-17.45,0-35.39,4.1-52.54,10.32a9.34,9.34,0,0,0-5.42,12.39Z"/><path class="cls-13" d="M415,53.71c-3.39.33-6.78.8-10.18,1.38a9.35,9.35,0,0,0-7.34,11.76,1.21,1.21,0,0,0,.05.18,9.39,9.39,0,0,0,10.64,6.7c2.94-.51,5.83-.89,8.66-1.17a9.34,9.34,0,0,0,8.42-9.47v-.2A9.36,9.36,0,0,0,415,53.71Z"/><path class="cls-14" d="M354.13,180a23.81,23.81,0,0,0-5.61,21.29,6.32,6.32,0,0,0,12.31-2.84,11.07,11.07,0,0,1,19.58-9.19,6.32,6.32,0,0,0,10.06-7.64A23.66,23.66,0,0,0,354.13,180Z"/><path class="cls-15" d="M370.21,180.94a6.14,6.14,0,0,1,7.27-7.92,23.64,23.64,0,0,1,13,8.57,6.32,6.32,0,0,1-10.06,7.64,11,11,0,0,0-5.76-3.9,6.66,6.66,0,0,1-4.44-4.39Z"/><path class="cls-16" d="M371,268.42a19.52,19.52,0,0,1-7.31,15.28l-25.48,20.51a91.75,91.75,0,0,1-42.65-15.94h0l43.55-35.08A19.6,19.6,0,0,1,371,268.42Z"/><path class="cls-17" d="M371,268.42a19.52,19.52,0,0,1-7.31,15.28l-16.64,13.4a44.11,44.11,0,0,0,.16-47.81A19.61,19.61,0,0,1,371,268.42Z"/><path class="cls-17" d="M340.46,302.4l-2.25,1.81c-1.69-.19-3.35-.43-5-.71l-24.35-26,4.72-3.8Z"/><path class="cls-17" d="M362.9,284.34l-4.72,3.8L331,259.72l4.71-3.81Z"/><path class="cls-18" d="M362.9,284.34l-4.72,3.8-5.05-5.29a46.58,46.58,0,0,0,1-7.69Z"/><circle class="cls-6" cx="381.57" cy="224.93" r="16.96"/><path class="cls-19" d="M398.58,91.35a1.23,1.23,0,0,0,0-2.06,35.35,35.35,0,0,1-9.84-9.76,1.24,1.24,0,0,0-2.07,0,35.35,35.35,0,0,1-9.84,9.76,1.23,1.23,0,0,0,0,2.06,35,35,0,0,1,5.41,4.39,34.43,34.43,0,0,1,4.43,5.37,1.25,1.25,0,0,0,2.07,0,35,35,0,0,1,4.43-5.37A35.49,35.49,0,0,1,398.58,91.35Z"/><path class="cls-20" d="M398.58,91.35a35.49,35.49,0,0,0-5.41,4.39,35,35,0,0,0-4.43,5.37,1.25,1.25,0,0,1-2.07,0,34.43,34.43,0,0,0-4.43-5.37l-.67-.64c.3,0,.6,0,.91,0a10.67,10.67,0,0,0,10.69-10.25h0a35,35,0,0,0,5.41,4.4A1.23,1.23,0,0,1,398.58,91.35Z"/><path class="cls-19" d="M425.54,190.24a1.23,1.23,0,0,0,0-2.06,34.43,34.43,0,0,1-5.41-4.39,35,35,0,0,1-4.43-5.37,1.25,1.25,0,0,0-2.07,0,35,35,0,0,1-4.43,5.37,34.43,34.43,0,0,1-5.41,4.39,1.23,1.23,0,0,0,0,2.06,35.21,35.21,0,0,1,9.84,9.77,1.25,1.25,0,0,0,2.07,0,35.21,35.21,0,0,1,9.84-9.77Z"/><path class="cls-20" d="M425.54,190.24a35,35,0,0,0-5.41,4.4A35.41,35.41,0,0,0,415.7,200a1.24,1.24,0,0,1-2.07,0,34.83,34.83,0,0,0-4.43-5.36c-.22-.22-.44-.44-.67-.65.3,0,.6,0,.9,0a10.66,10.66,0,0,0,10.69-10.25h0a34.9,34.9,0,0,0,5.41,4.39,1.23,1.23,0,0,1,0,2.06Z"/><path class="cls-19" d="M312,178a1.22,1.22,0,0,0,0-2,35.08,35.08,0,0,1-5.41-4.4,34.43,34.43,0,0,1-4.43-5.37,1.25,1.25,0,0,0-2.07,0,35,35,0,0,1-4.43,5.37,35.56,35.56,0,0,1-5.41,4.4,1.22,1.22,0,0,0,0,2,35.56,35.56,0,0,1,5.41,4.4,35,35,0,0,1,4.43,5.37,1.25,1.25,0,0,0,2.07,0,34.43,34.43,0,0,1,4.43-5.37A35.08,35.08,0,0,1,312,178Z"/><path class="cls-20" d="M312,178a35.08,35.08,0,0,0-5.41,4.4,34.43,34.43,0,0,0-4.43,5.37,1.25,1.25,0,0,1-2.07,0,35,35,0,0,0-4.43-5.37l-.67-.64.9,0a10.65,10.65,0,0,0,10.69-10.24h0A35.08,35.08,0,0,0,312,176a1.22,1.22,0,0,1,0,2Z"/><path class="cls-12" d="M539.56,85.92a1.23,1.23,0,0,0,0-2.06,35.49,35.49,0,0,1-9.83-9.76,1.25,1.25,0,0,0-2.08,0,35.49,35.49,0,0,1-9.83,9.76,1.23,1.23,0,0,0,0,2.06,34.94,34.94,0,0,1,5.4,4.39,34.43,34.43,0,0,1,4.43,5.37,1.26,1.26,0,0,0,2.08,0,34.43,34.43,0,0,1,4.43-5.37A34.94,34.94,0,0,1,539.56,85.92Z"/><path class="cls-1" d="M539.57,85.92a34,34,0,0,0-5.41,4.39,34.43,34.43,0,0,0-4.43,5.37,1.26,1.26,0,0,1-2.08,0,34.36,34.36,0,0,0-4.42-5.37l-.67-.64q.45,0,.9,0a10.65,10.65,0,0,0,10.69-10.24h0a34,34,0,0,0,5.41,4.4,1.24,1.24,0,0,1,0,2.06Z"/><path class="cls-21" d="M298.88,109.2a1.23,1.23,0,0,0,0-2.06A35,35,0,0,1,289,97.38a1.25,1.25,0,0,0-2.07,0,35,35,0,0,1-9.84,9.76,1.23,1.23,0,0,0,0,2.06,35.56,35.56,0,0,1,5.41,4.4A35,35,0,0,1,287,119a1.25,1.25,0,0,0,2.07,0,34.43,34.43,0,0,1,4.43-5.37A35.08,35.08,0,0,1,298.88,109.2Z"/><path class="cls-19" d="M298.88,109.2a35.08,35.08,0,0,0-5.41,4.4A34.43,34.43,0,0,0,289,119a1.25,1.25,0,0,1-2.07,0,35,35,0,0,0-4.43-5.37l-.67-.65c.3,0,.6,0,.9,0a10.66,10.66,0,0,0,10.69-10.25h0a35.08,35.08,0,0,0,5.41,4.4A1.22,1.22,0,0,1,298.88,109.2Z"/><path class="cls-22" d="M383.08,65.62a2.21,2.21,0,0,0,0-3.71,63,63,0,0,1-17.71-17.58,2.26,2.26,0,0,0-3.74,0,63.2,63.2,0,0,1-17.72,17.58,2.22,2.22,0,0,0,0,3.71,63.23,63.23,0,0,1,9.74,7.92,62.4,62.4,0,0,1,8,9.66,2.25,2.25,0,0,0,3.74,0,62.9,62.9,0,0,1,8-9.66A63.71,63.71,0,0,1,383.08,65.62Z"/><path class="cls-23" d="M383.09,65.62a63.3,63.3,0,0,0-9.75,7.92,62.5,62.5,0,0,0-8,9.67,2.26,2.26,0,0,1-3.74,0,62,62,0,0,0-8-9.67c-.39-.39-.79-.78-1.2-1.16.54,0,1.08.07,1.63.07A19.2,19.2,0,0,0,373.33,54h0a63.3,63.3,0,0,0,9.75,7.92,2.21,2.21,0,0,1,0,3.7Z"/><path class="cls-19" d="M336.59,79.63c0,15.18-3.52,34.41-18.78,47.33L307.59,91.9c6.07-13,6.6-27.48,5.77-38.23Z"/><path class="cls-20" d="M369.45,149.53a103.94,103.94,0,0,1-9.36,5.84c-12.75,7.08-22.22,9.21-27.23,9.83a4.69,4.69,0,0,1-5.09-3.34l-.44-1.52c26.47-19.22,22.25-55.89,19.82-68.68l24.19,27.05h0c.87,8.37,1,19.66-1.89,30.82Z"/><path class="cls-20" d="M336.59,79.63c0,8.82-1.18,19-5.18,28.54a116.14,116.14,0,0,0-4.8-18.63,112.13,112.13,0,0,0-13-26.15c.07-3.45-.06-6.73-.29-9.72Z"/><path class="cls-24" d="M369.45,149.37a103.94,103.94,0,0,1-9.36,5.84h0s-.13.06-.2.11,0,0,0,0h0a92.59,92.59,0,0,0-1.45-51.23l12.92,14.45h0c.87,8.37,1,19.66-1.89,30.82Z"/><path class="cls-21" d="M318.33,104.36l-.12,0a6.42,6.42,0,0,1-8.46-4.19l-2.42-8.31h0a69,69,0,0,0,6-25.72,4.67,4.67,0,0,1,.23.66l8.67,29.73A6.43,6.43,0,0,1,318.33,104.36Z"/><path class="cls-22" d="M542.14,135.23a2.21,2.21,0,0,0,0-3.71,63,63,0,0,1-17.71-17.58,2.26,2.26,0,0,0-3.74,0A63.2,63.2,0,0,1,503,131.52a2.22,2.22,0,0,0,0,3.71,63.23,63.23,0,0,1,9.74,7.92,62.4,62.4,0,0,1,8,9.66,2.25,2.25,0,0,0,3.74,0,62.9,62.9,0,0,1,8-9.66A63.71,63.71,0,0,1,542.14,135.23Z"/><path class="cls-23" d="M542.15,135.23a63.78,63.78,0,0,0-9.75,7.92,62.5,62.5,0,0,0-8,9.67,2.26,2.26,0,0,1-3.74,0,62.5,62.5,0,0,0-8-9.67c-.4-.39-.8-.78-1.21-1.16.54,0,1.08.07,1.63.07a19.2,19.2,0,0,0,19.25-18.46h0a63.78,63.78,0,0,0,9.75,7.92,2.21,2.21,0,0,1,0,3.7Z"/><path class="cls-16" d="M273,156.92V29.31A29.31,29.31,0,0,0,243.69,0H29.31A29.31,29.31,0,0,0,0,29.31v136a29.31,29.31,0,0,0,29.31,29.31H206.89a14.68,14.68,0,0,1,10.39,4.32L249.18,231A14.64,14.64,0,0,0,273,219.63V156.92Z"/><path class="cls-25" d="M0,161.42V166a29.32,29.32,0,0,0,29.31,29.32H206.89a14.58,14.58,0,0,1,10.39,4.35L249.18,232A14.63,14.63,0,0,0,273,220.52v-8.05a14.35,14.35,0,0,1-13.57-2.57l-31.9-32.34a14.66,14.66,0,0,0-10.4-4.35H23.42A29.17,29.17,0,0,1,0,161.42Z"/><path d="M56.9,36.13c.38,0,.57-.22.57-.64a20.84,20.84,0,0,1-6.92-7.4,22.56,22.56,0,0,1-2.68-9.68,5.82,5.82,0,0,1,2.76-2.11,10,10,0,0,1,3.79-.74,9.08,9.08,0,0,1,4.4,1q1.16,3.11,1.89,5.91l-1,4.43a2,2,0,0,0-.09.57c0,.47.25.7.74.7.17-.52.55-2.09,1.15-4.72.15-.67.35-1.6.61-2.8s.57-2.6,1-4.23a9.89,9.89,0,0,1,4.31-.9,7.15,7.15,0,0,1,4.67,1.42,5,5,0,0,1,1.75,4.11,14.82,14.82,0,0,1-2.22,7.67A23.35,23.35,0,0,1,67,34.24V41a11.36,11.36,0,0,1-3.06,1.38,11.47,11.47,0,0,1-2.85.34,8,8,0,0,1-4.45-1.07A3.55,3.55,0,0,1,55,38.48v-3.6c.25.24.56.51.94.81A1.77,1.77,0,0,0,56.9,36.13Z"/><path d="M77.94,40a11.63,11.63,0,0,1-3.36-8.78q0-5.55,3.17-8.76a11.15,11.15,0,0,1,8.31-3.21,11,11,0,0,1,8.33,3.34,12.15,12.15,0,0,1,3.16,8.71,11.77,11.77,0,0,1-3,8.52A11,11,0,0,1,86.23,43,11.35,11.35,0,0,1,77.94,40Zm7.67-9.08v3.59a.69.69,0,0,0,.47.14.52.52,0,0,0,.48-.23,1.59,1.59,0,0,0,.14-.77V30.73a13.94,13.94,0,0,0-.16-2.61c-.11-.43-.32-.65-.62-.65a.65.65,0,0,0-.49.21C85.55,29,85.61,30.12,85.61,30.94Z"/><path d="M109.82,33.42a.92.92,0,0,0,.53-.21,7.69,7.69,0,0,1-.21-2.11V21a10,10,0,0,1,5.24-1.31,9,9,0,0,1,3,.46,4.87,4.87,0,0,1,2,1.22V32c0,2,.49,3.37,1.48,4a3,3,0,0,1,0,.39v.37a6,6,0,0,1-1.58,4.53,5.35,5.35,0,0,1-4,1.44A5.73,5.73,0,0,1,113.5,42a4.43,4.43,0,0,1-1.92-2.09.61.61,0,0,0-.7.68,1.34,1.34,0,0,0,.48.94,5.31,5.31,0,0,1-1.58.86,8.58,8.58,0,0,1-2.72.33,8.77,8.77,0,0,1-3.5-.74,6.73,6.73,0,0,1-3.24-2.77A10.54,10.54,0,0,1,99,33.6V28.46a7.94,7.94,0,0,1-1-4,10.26,10.26,0,0,1,.29-2.34A6.42,6.42,0,0,1,99.11,20h4.51a6.05,6.05,0,0,1,4,1.2,4.44,4.44,0,0,1,1.45,3.64v6.64C109.06,32.76,109.31,33.42,109.82,33.42Z"/><path d="M145,36a11.93,11.93,0,0,1-2.24-.18,1.12,1.12,0,0,0-.06.35c0,.3.22.5.65.6a7.41,7.41,0,0,0,1.65.16,14.07,14.07,0,0,0,5.45-1,5.63,5.63,0,0,1,3.45,2.5,6.79,6.79,0,0,1,1,3.72,6.67,6.67,0,0,1-3.22,5.9,14.82,14.82,0,0,1-8.29,2.11c-3.39,0-6-.6-7.85-1.8A4.93,4.93,0,0,1,133,44.1a4.26,4.26,0,0,1,.47-1.93,3,3,0,0,1,1.09-1.29,7.8,7.8,0,0,0,3,1.4,16.22,16.22,0,0,0,4.12.53,13.5,13.5,0,0,0,2.71-.16c.41-.11.61-.3.61-.58a.83.83,0,0,0-.12-.41,12.27,12.27,0,0,1-2.57.23,14.09,14.09,0,0,1-6.21-1.13,4.35,4.35,0,0,1-2.75-4.08,4.55,4.55,0,0,1,.43-2,2.9,2.9,0,0,1,1.27-1.36,5.63,5.63,0,0,1-1.91-2.11,7.06,7.06,0,0,1-.79-3.49,7.42,7.42,0,0,1,3-6.22A12.25,12.25,0,0,1,143,19.25a12.79,12.79,0,0,1,4.39.76V18.57a9.07,9.07,0,0,1,3.21-.47,5.63,5.63,0,0,1,3,.68,3.16,3.16,0,0,1,1.27,2.89,6.12,6.12,0,0,1-.23,1.84A7.94,7.94,0,0,1,154,25a9.11,9.11,0,0,1,.53,3.36A6.7,6.7,0,0,1,151.92,34,11,11,0,0,1,145,36Zm-.76-8.3c0-.5-.18-.74-.55-.74s-.52.2-.52.61v2.12a.78.78,0,0,0,.5.14.47.47,0,0,0,.45-.25,2.27,2.27,0,0,0,.12-.9Z"/><path d="M167,33.42a.92.92,0,0,0,.53-.21,7.78,7.78,0,0,1-.2-2.11V21a10,10,0,0,1,5.23-1.31,9,9,0,0,1,3,.46,4.8,4.8,0,0,1,2,1.22V32c0,2,.49,3.37,1.48,4a3,3,0,0,1,0,.39v.37a6,6,0,0,1-1.58,4.53,5.35,5.35,0,0,1-4,1.44,5.73,5.73,0,0,1-2.86-.72,4.49,4.49,0,0,1-1.92-2.09.61.61,0,0,0-.7.68,1.34,1.34,0,0,0,.48.94,5.31,5.31,0,0,1-1.58.86,8.54,8.54,0,0,1-2.72.33,8.77,8.77,0,0,1-3.5-.74,6.78,6.78,0,0,1-3.24-2.77,10.54,10.54,0,0,1-1.37-5.62V28.46a7.94,7.94,0,0,1-1-4,10.26,10.26,0,0,1,.29-2.34A6.42,6.42,0,0,1,156.3,20h4.51a6.05,6.05,0,0,1,4,1.2,4.44,4.44,0,0,1,1.45,3.64v6.64C166.25,32.76,166.5,33.42,167,33.42Z"/><path d="M189.8,32v.48a2.91,2.91,0,0,0,0,.47.93.93,0,0,0,.45.1c.4,0,.59-.3.59-.9a62.3,62.3,0,0,1,.34-6.27,48.55,48.55,0,0,1,.73-5,8.86,8.86,0,0,1,8.71-.13,3.12,3.12,0,0,1,1.5,2.59q0,.63-.76,5.25t-2.15,9.88c-.18.7-.5,1.68-.95,2.94a17.06,17.06,0,0,1-1.47,3.13,10.13,10.13,0,0,1-6,4.8,13.45,13.45,0,0,1-3.38.43,7.3,7.3,0,0,1-5.11-1.64,4.68,4.68,0,0,1-1.66-3.66,7.28,7.28,0,0,1,1.29-4.11,5.52,5.52,0,0,1,1.13-.08,13.58,13.58,0,0,1,2,.2c2.27.43,3.43.64,3.47.64l.32,0a2.69,2.69,0,0,0,.46,0,.76.76,0,0,0,.49-.16.85.85,0,0,0,.2-.66l-4.84-.92a6.59,6.59,0,0,1-3.09-3.1,21.56,21.56,0,0,1-2.2-7.89,6.77,6.77,0,0,1-1.35-4.23A7.45,7.45,0,0,1,179.79,20h5.27a5,5,0,0,1,4,1.51,6.25,6.25,0,0,1,1.23,3.31A57.64,57.64,0,0,0,189.8,32Z"/><path d="M213.41,26.28a.64.64,0,0,0-.54.64V27a.22.22,0,0,0,0,.12l.6,0H214a13.32,13.32,0,0,1,4.38.71,7.33,7.33,0,0,1,3.33,2.27,6.8,6.8,0,0,1,1.44,4.45,7.35,7.35,0,0,1-2.89,6.31A12.71,12.71,0,0,1,212.5,43a15.11,15.11,0,0,1-7.57-1.6,5.12,5.12,0,0,1-2.74-4.7,4.48,4.48,0,0,1,.49-2.1,3.34,3.34,0,0,1,1.11-1.34,9.93,9.93,0,0,0,3.27,1.63,15,15,0,0,0,4.54.68c.64,0,1-.17,1-.53a1,1,0,0,0-.07-.41l-.34,0h-.23a12.39,12.39,0,0,1-7-1.72,6.22,6.22,0,0,1-3-5.5,7.12,7.12,0,0,1,2.65-5.74c2-1.61,4.64-2.42,8.06-2.42a20.16,20.16,0,0,1,4.71.53,14.82,14.82,0,0,1,3.74,1.42,6.13,6.13,0,0,1,.39,2.48,5.06,5.06,0,0,1-1.38,3.83,10.56,10.56,0,0,0-2.55-1,11.36,11.36,0,0,0-2.72-.38A8.53,8.53,0,0,0,213.41,26.28Z"/><path d="M33.77,66.21a7.09,7.09,0,0,0,.33,2.38A2.71,2.71,0,0,0,35.25,70a3,3,0,0,1,0,.39v.37a5.51,5.51,0,0,1-5.83,6,6,6,0,0,1-4.18-1.46,6.41,6.41,0,0,1-1.86-5,21,21,0,0,1,.13-2.53c.09-.74.15-1.26.19-1.57s.07-.61.11-.88A9.14,9.14,0,0,0,23.89,64a2.19,2.19,0,0,0-.22-1.15.65.65,0,0,0-.59-.35,1.33,1.33,0,0,0-.67.16l.27,3.35a24.56,24.56,0,0,0-.37,4.38,8.62,8.62,0,0,0,1.05,4.23,7.5,7.5,0,0,1-5.64,2.07,6,6,0,0,1-3.59-1.09,3.78,3.78,0,0,1-1.77-3.26V48.45a9.6,9.6,0,0,1,2.37-.94,10.72,10.72,0,0,1,2.8-.37,7.46,7.46,0,0,1,3.9.92,3.46,3.46,0,0,1,1.74,3.12v2a7.74,7.74,0,0,0-3.42,1c-.95.55-1.42,1.05-1.42,1.5a.58.58,0,0,0,.17.4.68.68,0,0,0,.39.21,6.46,6.46,0,0,1,2.43-1.68A9.33,9.33,0,0,1,25,53.9a10.72,10.72,0,0,1,3.87.66,7.42,7.42,0,0,1,3.43,2.5,8.51,8.51,0,0,1,1.5,5.15Z"/><path d="M56.71,66.21A7.09,7.09,0,0,0,57,68.59,2.69,2.69,0,0,0,58.18,70a1.85,1.85,0,0,1,0,.39v.37a5.83,5.83,0,0,1-1.76,4.53,5.46,5.46,0,0,1-3.85,1.44A5.72,5.72,0,0,1,49.73,76a4.13,4.13,0,0,1-1.84-2.13c-.47,0-.7.22-.7.68a2,2,0,0,0,.72,1.29,7.25,7.25,0,0,1-4,.9,8.68,8.68,0,0,1-6.06-2.06,7.41,7.41,0,0,1-2.27-5.76A7.12,7.12,0,0,1,38,63.17a8.64,8.64,0,0,1,5.68-1.82,15.57,15.57,0,0,1,2.3.16c.49.1.76.15.8.17a1.34,1.34,0,0,0,.06-.35q0-.54-.9-.72a12.5,12.5,0,0,0-2.36-.18,10.46,10.46,0,0,0-5.29,1.25,8.38,8.38,0,0,1-1-4.31,5.07,5.07,0,0,1,.36-2.19A20.14,20.14,0,0,1,41.37,54a21.27,21.27,0,0,1,4.8-.53q5.2,0,7.87,2.28a8,8,0,0,1,2.67,6.46Zm-10.65,1c-.57,0-.86.26-.86.78s.34.74,1,.74a1.35,1.35,0,0,0,1-.34,1.66,1.66,0,0,0,.33-1.18Z"/><path d="M68.3,66.33v.49c0,.24,0,.4,0,.5a1.17,1.17,0,0,0,.47.1c.4,0,.6-.27.6-.8q0-2.09.49-7.88.27-3.14.33-3.69a8.09,8.09,0,0,1,4.62-1.29A5.71,5.71,0,0,1,79,55.2a4.58,4.58,0,0,1,1.32,3.4,11.76,11.76,0,0,1-.39,2.93,76.25,76.25,0,0,1-3.8,11.59,5.51,5.51,0,0,1-3,3,12,12,0,0,1-4.33.62,17.14,17.14,0,0,1-3-.25,10.32,10.32,0,0,1-2.25-.57,72.36,72.36,0,0,1-4.9-13.43,5.26,5.26,0,0,1-1.09-1.79,6.45,6.45,0,0,1-.45-2.38A7.6,7.6,0,0,1,58.33,54h5.11a5,5,0,0,1,4,1.51,6.37,6.37,0,0,1,1.27,3.35A71.18,71.18,0,0,0,68.3,66.33Z"/><path d="M92.69,77q-5.68,0-9-3.16a11.38,11.38,0,0,1-3.37-8.71A11.12,11.12,0,0,1,91.93,53.35a11.2,11.2,0,0,1,7.86,2.7,8.61,8.61,0,0,1,3,6.63A6.15,6.15,0,0,1,100.32,68a10.12,10.12,0,0,1-6.16,1.68,9.35,9.35,0,0,1-4.92-1.21.56.56,0,0,0-.16.46c0,.41.54.78,1.62,1.12a11.33,11.33,0,0,0,3.68.56,12.58,12.58,0,0,0,3.75-.53,9.47,9.47,0,0,0,2.72-1.24,3.17,3.17,0,0,1,.79,1.59,8.57,8.57,0,0,1,.3,2.12,6.66,6.66,0,0,1-.19,1.69,10.34,10.34,0,0,1-3.28,1.93A17.13,17.13,0,0,1,92.69,77Zm-.27-13.89c.68,0,1-.26,1-.78s-.37-.73-1.09-.73a1.17,1.17,0,0,0-1.25,1.16A2.4,2.4,0,0,0,92.42,63.11Z"/><path d="M125.73,66.21a7.09,7.09,0,0,0,.33,2.38A2.71,2.71,0,0,0,127.21,70a3,3,0,0,1,0,.39v.37a5.51,5.51,0,0,1-5.84,6,6,6,0,0,1-4.17-1.46,6.41,6.41,0,0,1-1.87-5,20.79,20.79,0,0,1,.14-2.53c.09-.74.15-1.26.18-1.57s.07-.61.11-.88a7.44,7.44,0,0,0,.07-1.21,2.3,2.3,0,0,0-.22-1.15.65.65,0,0,0-.59-.35,1.3,1.3,0,0,0-.67.16l.27,3.35a24.56,24.56,0,0,0-.37,4.38,8.72,8.72,0,0,0,1,4.23,7.5,7.5,0,0,1-5.64,2.07,6,6,0,0,1-3.59-1.09,3.8,3.8,0,0,1-1.76-3.26V62.46a7.06,7.06,0,0,1-1.21-4.2A7.57,7.57,0,0,1,104.32,54H108A3.29,3.29,0,0,1,110.45,55c-.6.56-.9,1-.9,1.4s.24.63.72.63A6.92,6.92,0,0,1,113,54.48a8.58,8.58,0,0,1,4.21-1A9,9,0,0,1,123,55.2q2.79,2.19,2.79,6.81Z"/><path d="M134,57a.42.42,0,0,0-.07-.27,2,2,0,0,1-.16-.2,4.36,4.36,0,0,1-4.82-.7,3.94,3.94,0,0,1-1.23-3,4.55,4.55,0,0,1,1.43-3.56A5.28,5.28,0,0,1,132.77,48a5.08,5.08,0,0,1,4.11,1.78,6.75,6.75,0,0,1,1.51,4.52,7.16,7.16,0,0,1-1.82,5.23,5.84,5.84,0,0,1-4.33,1.86,4.23,4.23,0,0,1-2.55-.71,2.29,2.29,0,0,1-1-2,2.25,2.25,0,0,1,.49-1.53,4.37,4.37,0,0,0,2.31.69,5.58,5.58,0,0,0,1.8-.22Q134,57.46,134,57Z"/><path d="M141.84,63.4h1.27c.68,0,1-.23,1-.68a1.93,1.93,0,0,0,0-.24h-4.6a10.73,10.73,0,0,1-.45-3.21,12.49,12.49,0,0,1,.27-2.88c.78-.5,1.85-1.25,3.22-2.26.38-.93.88-2.41,1.49-4.43.09-.27.18-.54.29-.8a14.91,14.91,0,0,1,3.65-.41,18.86,18.86,0,0,1,4,.43v5h3.55a7.53,7.53,0,0,1,1.19,4.24,8.74,8.74,0,0,1-.31,2.28,6.16,6.16,0,0,1-.88,2h-2.93v3.09c0,1.75.73,2.63,2.19,2.63h.88a10.25,10.25,0,0,1,.43,2.71,5.37,5.37,0,0,1-1.77,4.33,7.72,7.72,0,0,1-5.15,1.51,7.53,7.53,0,0,1-5.37-1.88,7.22,7.22,0,0,1-2-5.52Z"/><path d="M178.89,60.28a.64.64,0,0,0-.54.64V61a.22.22,0,0,0,0,.12l.6,0h.49a13.32,13.32,0,0,1,4.38.71,7.33,7.33,0,0,1,3.33,2.27,6.8,6.8,0,0,1,1.44,4.45,7.35,7.35,0,0,1-2.89,6.31A12.71,12.71,0,0,1,178,77a15.11,15.11,0,0,1-7.57-1.6,5.12,5.12,0,0,1-2.74-4.7,4.48,4.48,0,0,1,.49-2.1,3.34,3.34,0,0,1,1.11-1.34,9.93,9.93,0,0,0,3.27,1.63,15,15,0,0,0,4.54.68c.64,0,1-.17,1-.53a1.21,1.21,0,0,0-.07-.41l-.34,0h-.23a12.39,12.39,0,0,1-6.95-1.72,6.22,6.22,0,0,1-3-5.5,7.12,7.12,0,0,1,2.65-5.74q2.92-2.41,8.06-2.42a20.16,20.16,0,0,1,4.71.53,14.82,14.82,0,0,1,3.74,1.42,6.13,6.13,0,0,1,.39,2.48,5.06,5.06,0,0,1-1.38,3.83,10.56,10.56,0,0,0-2.55-1,11.36,11.36,0,0,0-2.72-.38A8.53,8.53,0,0,0,178.89,60.28Z"/><path d="M201.59,77q-5.67,0-9-3.16a11.41,11.41,0,0,1-3.36-8.71,11.1,11.1,0,0,1,11.56-11.78,11.24,11.24,0,0,1,7.87,2.7,8.64,8.64,0,0,1,3,6.63A6.12,6.12,0,0,1,209.22,68a10.07,10.07,0,0,1-6.15,1.68,9.35,9.35,0,0,1-4.92-1.21.56.56,0,0,0-.17.46c0,.41.54.78,1.62,1.12a11.35,11.35,0,0,0,3.69.56,12.63,12.63,0,0,0,3.75-.53,9.6,9.6,0,0,0,2.72-1.24,3.25,3.25,0,0,1,.79,1.59,9,9,0,0,1,.29,2.12,7.18,7.18,0,0,1-.18,1.69,10.45,10.45,0,0,1-3.28,1.93A17.24,17.24,0,0,1,201.59,77Zm-.26-13.89q1,0,1-.78c0-.49-.36-.73-1.09-.73A1.17,1.17,0,0,0,200,62.76,2.44,2.44,0,0,0,201.33,63.11Z"/><path d="M225,77q-5.69,0-9-3.16a11.38,11.38,0,0,1-3.37-8.71,11.12,11.12,0,0,1,11.57-11.78,11.2,11.2,0,0,1,7.86,2.7,8.61,8.61,0,0,1,3,6.63A6.15,6.15,0,0,1,232.65,68a10.12,10.12,0,0,1-6.16,1.68,9.35,9.35,0,0,1-4.92-1.21.56.56,0,0,0-.16.46c0,.41.54.78,1.62,1.12a11.33,11.33,0,0,0,3.68.56,12.58,12.58,0,0,0,3.75-.53,9.47,9.47,0,0,0,2.72-1.24A3.17,3.17,0,0,1,234,70.4a8.57,8.57,0,0,1,.3,2.12,6.66,6.66,0,0,1-.19,1.69,10.34,10.34,0,0,1-3.28,1.93A17.13,17.13,0,0,1,225,77Zm-.27-13.89c.68,0,1-.26,1-.78s-.37-.73-1.09-.73a1.17,1.17,0,0,0-1.25,1.16A2.4,2.4,0,0,0,224.75,63.11Z"/><path d="M258.06,66.21a7.09,7.09,0,0,0,.33,2.38A2.71,2.71,0,0,0,259.54,70a3,3,0,0,1,0,.39v.37a5.51,5.51,0,0,1-5.84,6,6,6,0,0,1-4.17-1.46,6.41,6.41,0,0,1-1.87-5,20.79,20.79,0,0,1,.14-2.53c.09-.74.15-1.26.18-1.57s.07-.61.11-.88a7.44,7.44,0,0,0,.07-1.21,2.3,2.3,0,0,0-.22-1.15.65.65,0,0,0-.59-.35,1.3,1.3,0,0,0-.67.16l.27,3.35a24.56,24.56,0,0,0-.37,4.38,8.72,8.72,0,0,0,1,4.23A7.5,7.5,0,0,1,242,76.73a6,6,0,0,1-3.59-1.09,3.8,3.8,0,0,1-1.76-3.26V62.46a7.06,7.06,0,0,1-1.21-4.2A7.57,7.57,0,0,1,236.65,54h3.65A3.29,3.29,0,0,1,242.78,55c-.6.56-.9,1-.9,1.4s.24.63.72.63a6.92,6.92,0,0,1,2.76-2.58,8.58,8.58,0,0,1,4.21-1,9,9,0,0,1,5.76,1.75q2.79,2.19,2.79,6.81Z"/><path d="M110.54,100.21a7.52,7.52,0,0,0,.33,2.44,2.73,2.73,0,0,0,1.14,1.46,1.3,1.3,0,0,1,0,.34v.31a5.78,5.78,0,0,1-1.65,4.39,5.85,5.85,0,0,1-4.23,1.58,6,6,0,0,1-4.17-1.41,6.34,6.34,0,0,1-1.87-5V97.81c0-.92-.3-1.37-.9-1.37a.87.87,0,0,0-.56.16L99,99.66v4.63a7.85,7.85,0,0,0,.93,4.23,6.92,6.92,0,0,1-2.45,1.63,8,8,0,0,1-3,.58,5.59,5.59,0,0,1-3.81-1.19A5.7,5.7,0,0,1,89.07,105v-7.2c0-.92-.31-1.37-.91-1.37a.86.86,0,0,0-.55.16L88,99.66v5.43a8.27,8.27,0,0,0,.61,3.55A7.5,7.5,0,0,1,83,110.71a5.94,5.94,0,0,1-3.63-1.09,4,4,0,0,1-1.7-3.36v-9.8a7.13,7.13,0,0,1-1.21-4.2A7.65,7.65,0,0,1,77.62,88h4.94A3.31,3.31,0,0,1,85.05,89c-.61.56-.91,1-.91,1.4s.24.63.72.63a6.78,6.78,0,0,1,2.48-2.48,8.62,8.62,0,0,1,4.33-1,6.57,6.57,0,0,1,3.31.8,5.9,5.9,0,0,1,2.12,1.84,6.16,6.16,0,0,1,2.52-2,8.15,8.15,0,0,1,3.23-.66,7.33,7.33,0,0,1,5.76,2.29,9.24,9.24,0,0,1,2,6.3Z"/><path d="M122.75,100v.48a2.91,2.91,0,0,0,0,.47.93.93,0,0,0,.45.1c.39,0,.59-.3.59-.9a62.3,62.3,0,0,1,.34-6.27,48.55,48.55,0,0,1,.73-5,7.34,7.34,0,0,1,4.43-1.21,7.24,7.24,0,0,1,4.27,1.08,3.11,3.11,0,0,1,1.51,2.59q0,.63-.76,5.25t-2.15,9.88c-.18.7-.5,1.68-1,2.94a17.06,17.06,0,0,1-1.47,3.13,10.13,10.13,0,0,1-6,4.8,13.45,13.45,0,0,1-3.38.43,7.28,7.28,0,0,1-5.11-1.64,4.68,4.68,0,0,1-1.66-3.66,7.28,7.28,0,0,1,1.29-4.11,5.52,5.52,0,0,1,1.13-.08,13.58,13.58,0,0,1,2,.2c2.27.43,3.42.64,3.46.64l.32,0a2.86,2.86,0,0,0,.46,0,.77.77,0,0,0,.5-.16.85.85,0,0,0,.2-.66l-4.84-.92a6.59,6.59,0,0,1-3.09-3.1,21.18,21.18,0,0,1-2.2-7.89,6.77,6.77,0,0,1-1.35-4.23A7.45,7.45,0,0,1,112.74,88H118a5,5,0,0,1,4,1.51,6.25,6.25,0,0,1,1.23,3.31A57.64,57.64,0,0,0,122.75,100Z"/><path d="M156,85.61V100c0,2,.49,3.37,1.47,4a1.85,1.85,0,0,1,0,.39v.37a6.1,6.1,0,0,1-1.48,4.45,5.65,5.65,0,0,1-4.22,1.52,6,6,0,0,1-4.32-1.52,7.17,7.17,0,0,1-1.91-5.45V82.45a9.22,9.22,0,0,1,4.93-1.31,6.18,6.18,0,0,1,4.14,1.18A4.11,4.11,0,0,1,156,85.61Z"/><path d="M168.72,91.9V100c0,2,.49,3.37,1.47,4a1.67,1.67,0,0,1,0,.39v.37a5.85,5.85,0,0,1-1.65,4.53,5.64,5.64,0,0,1-4,1.44,6.09,6.09,0,0,1-4.17-1.44,6.71,6.71,0,0,1-2.07-5.33V90.63a3.43,3.43,0,0,1,.8-.43,7,7,0,0,0,.9-.41,4.26,4.26,0,0,1-1.6-1.57,4.69,4.69,0,0,1-.72-2.61,5.62,5.62,0,0,1,1.71-4.23,5.78,5.78,0,0,1,4.17-1.64,5.62,5.62,0,0,1,4.14,1.67,5.69,5.69,0,0,1,1.67,4.2,5.4,5.4,0,0,1-1.27,3.56A5.47,5.47,0,0,1,165,91.08c0,.52.19.78.59.78a3.51,3.51,0,0,0,2.13-.82A8.22,8.22,0,0,1,168.72,91.9Z"/><path d="M181.46,85.61V100c0,2,.49,3.37,1.47,4a1.67,1.67,0,0,1,0,.39v.37a6.1,6.1,0,0,1-1.49,4.45,5.65,5.65,0,0,1-4.22,1.52,6,6,0,0,1-4.32-1.52,7.17,7.17,0,0,1-1.91-5.45V82.45A9.25,9.25,0,0,1,176,81.14a6.23,6.23,0,0,1,4.15,1.18A4.13,4.13,0,0,1,181.46,85.61Z"/><path d="M189.69,91a.36.36,0,0,0-.08-.27l-.15-.2a4.36,4.36,0,0,1-4.82-.7,3.94,3.94,0,0,1-1.23-3,4.55,4.55,0,0,1,1.43-3.56A5.28,5.28,0,0,1,188.5,82a5.11,5.11,0,0,1,4.11,1.78,6.8,6.8,0,0,1,1.51,4.52,7.16,7.16,0,0,1-1.82,5.23A5.84,5.84,0,0,1,188,95.41a4.2,4.2,0,0,1-2.54-.71,2.29,2.29,0,0,1-1-2,2.25,2.25,0,0,1,.49-1.53,4.37,4.37,0,0,0,2.31.69,5.62,5.62,0,0,0,1.8-.22Q189.69,91.46,189.69,91Z"/><path d="M64.65,128.28a.64.64,0,0,0-.53.64v.1c0,.07,0,.11,0,.12l.59,0h.49a13.32,13.32,0,0,1,4.38.71,7.33,7.33,0,0,1,3.33,2.27,6.8,6.8,0,0,1,1.44,4.45,7.33,7.33,0,0,1-2.89,6.31A12.7,12.7,0,0,1,63.75,145a15.13,15.13,0,0,1-7.58-1.6,5.12,5.12,0,0,1-2.74-4.7,4.61,4.61,0,0,1,.49-2.1A3.34,3.34,0,0,1,55,135.26a9.93,9.93,0,0,0,3.27,1.63,15,15,0,0,0,4.54.68c.65,0,1-.17,1-.53a1.22,1.22,0,0,0-.06-.41l-.35,0h-.23a12.42,12.42,0,0,1-7-1.72,6.21,6.21,0,0,1-2.95-5.5,7.11,7.11,0,0,1,2.64-5.74c2-1.61,4.64-2.42,8.06-2.42a20.16,20.16,0,0,1,4.71.53,14.82,14.82,0,0,1,3.74,1.42,6.13,6.13,0,0,1,.39,2.48,5.09,5.09,0,0,1-1.37,3.83,10.81,10.81,0,0,0-2.56-.95,11.35,11.35,0,0,0-2.71-.38A8.6,8.6,0,0,0,64.65,128.28Z"/><path d="M79.52,124.45c0,.41.24.61.72.61a8.29,8.29,0,0,1,2.89-2.86,8.07,8.07,0,0,1,4-.93,11.92,11.92,0,0,1,4.27.74,8.77,8.77,0,0,1,4.18,3.36,13.84,13.84,0,0,1,1.93,7.69c0,3.57-1,6.34-2.86,8.32a10.53,10.53,0,0,1-7.93,3,11.09,11.09,0,0,1-4.41-.7.39.39,0,0,0-.14.35c0,.41.32.71,1,.88a16.93,16.93,0,0,0,3.29.39v5.46a11.21,11.21,0,0,1-4.63.94,7.65,7.65,0,0,1-4.49-1.09A4,4,0,0,1,75.56,147V130.48a7.19,7.19,0,0,1-1.21-4.23,8.48,8.48,0,0,1,.33-2.23,7.29,7.29,0,0,1,.88-2.07h2.92a6,6,0,0,1,2.72.49Q79.52,123.69,79.52,124.45Zm6.54,8.84V136a.66.66,0,0,0,.48.15A.53.53,0,0,0,87,136a1.61,1.61,0,0,0,.14-.78v-2.09a13.09,13.09,0,0,0-.16-2.61c-.11-.43-.32-.65-.62-.65a.67.67,0,0,0-.49.21C86,131.38,86.06,132.47,86.06,133.29Z"/><path d="M119.52,134.21a7.09,7.09,0,0,0,.33,2.38A2.69,2.69,0,0,0,121,138a1.85,1.85,0,0,1,0,.39v.37a5.83,5.83,0,0,1-1.76,4.53,5.47,5.47,0,0,1-3.86,1.44,5.65,5.65,0,0,1-2.84-.74,4.11,4.11,0,0,1-1.85-2.13c-.47,0-.7.22-.7.68a2,2,0,0,0,.72,1.29,7.25,7.25,0,0,1-4,.9,8.68,8.68,0,0,1-6.06-2.06,7.41,7.41,0,0,1-2.27-5.76,7.12,7.12,0,0,1,2.4-5.74,8.64,8.64,0,0,1,5.68-1.82,15.57,15.57,0,0,1,2.3.16c.49.1.76.15.8.17a1.34,1.34,0,0,0,.06-.35q0-.54-.9-.72a12.5,12.5,0,0,0-2.36-.18,10.46,10.46,0,0,0-5.29,1.25,8.38,8.38,0,0,1-1-4.31,5.07,5.07,0,0,1,.36-2.19,20.14,20.14,0,0,1,3.76-1.2,21.33,21.33,0,0,1,4.8-.53q5.2,0,7.87,2.28a8,8,0,0,1,2.67,6.46Zm-10.65,1c-.57,0-.86.26-.86.78s.34.74,1,.74a1.35,1.35,0,0,0,1-.34,1.66,1.66,0,0,0,.33-1.18Z"/><path d="M127.56,144.63a7.58,7.58,0,0,1-3.9-.88A3,3,0,0,1,122,141V130.46a7.13,7.13,0,0,1-1.21-4.2A7.65,7.65,0,0,1,122,122h3.14a3.88,3.88,0,0,1,3.47,1.55,5.68,5.68,0,0,0-.9,1.46,3.75,3.75,0,0,0-.39,1.26.77.77,0,0,0,.19.57.8.8,0,0,0,.56.18,6.75,6.75,0,0,1,2.73-4.18,7.09,7.09,0,0,1,4.1-1.13A7.78,7.78,0,0,1,139.7,123a11.45,11.45,0,0,1,.62,4,9.66,9.66,0,0,1-.95,4.3,7.58,7.58,0,0,1-1.92.62,12.24,12.24,0,0,1-2.49.26,14.31,14.31,0,0,1-3.69-.49.62.62,0,0,0-.16.47c0,.2.13.36.4.46a9.9,9.9,0,0,0,1.34.34v10.29A9.62,9.62,0,0,1,127.56,144.63Z"/><path d="M151.72,136.65l-1,.43a9.19,9.19,0,0,0,.53,2.93,9.4,9.4,0,0,0,1.25,2.63,7.5,7.5,0,0,1-5.64,2.09,5.94,5.94,0,0,1-3.58-1.09,3.78,3.78,0,0,1-1.77-3.26V116.45a9.6,9.6,0,0,1,2.37-.94,10.66,10.66,0,0,1,2.8-.37,7.46,7.46,0,0,1,3.9.92,3.46,3.46,0,0,1,1.74,3.12v2.17a15.26,15.26,0,0,1-1,5.33,8.53,8.53,0,0,1-.66.77,8.26,8.26,0,0,0-.75.91,1.41,1.41,0,0,0-.28.71c0,.2.17.38.5.55a12.34,12.34,0,0,0,2.51-3.26,23.36,23.36,0,0,0,1.67-4.68l.61-.1,1.16-.2a7.89,7.89,0,0,1,1.14-.13,7.55,7.55,0,0,1,4.92,1.44,4.86,4.86,0,0,1,1.77,4,6.34,6.34,0,0,1-1.6,4.33,9.23,9.23,0,0,1-3.84,2.44,13.94,13.94,0,0,0,4.76,1.58,8.7,8.7,0,0,1,1.11,4.28,5.27,5.27,0,0,1-1.44,3.78,6.34,6.34,0,0,1-9.05-.5A10.68,10.68,0,0,1,151.72,136.65Z"/><path d="M175.87,128.28a.64.64,0,0,0-.54.64v.1a.22.22,0,0,0,0,.12l.6,0h.49a13.32,13.32,0,0,1,4.38.71,7.33,7.33,0,0,1,3.33,2.27,6.8,6.8,0,0,1,1.44,4.45,7.35,7.35,0,0,1-2.89,6.31A12.71,12.71,0,0,1,175,145a15.11,15.11,0,0,1-7.57-1.6,5.12,5.12,0,0,1-2.74-4.7,4.48,4.48,0,0,1,.49-2.1,3.34,3.34,0,0,1,1.11-1.34,9.93,9.93,0,0,0,3.27,1.63,15,15,0,0,0,4.54.68c.64,0,1-.17,1-.53a1,1,0,0,0-.07-.41l-.34,0h-.23a12.39,12.39,0,0,1-6.95-1.72,6.22,6.22,0,0,1-3-5.5,7.12,7.12,0,0,1,2.65-5.74c2-1.61,4.64-2.42,8.06-2.42a20.16,20.16,0,0,1,4.71.53,14.82,14.82,0,0,1,3.74,1.42,6.13,6.13,0,0,1,.39,2.48,5.06,5.06,0,0,1-1.38,3.83,10.56,10.56,0,0,0-2.55-.95,11.36,11.36,0,0,0-2.72-.38A8.53,8.53,0,0,0,175.87,128.28Z"/><path d="M207.44,124.49c0-.67-.27-1-.8-1s-.84.3-.84.89a1.29,1.29,0,0,0,.07.47,1.62,1.62,0,0,1,.09.26,5.44,5.44,0,0,1-1.17.58q-3.76,1.53-4.86,3.36a5.85,5.85,0,0,1-3-2.18,6.06,6.06,0,0,1-1.25-3.79,7.62,7.62,0,0,1,3.09-6.21,12,12,0,0,1,7.71-2.46q5.69,0,8.74,2.89a9.72,9.72,0,0,1,1.66,11.25,11.76,11.76,0,0,1-2.63,3.28,14.66,14.66,0,0,1-3.13,2.08,4.54,4.54,0,0,0-1.25-.87,2.78,2.78,0,0,0-1.08-.32.88.88,0,0,0-.56.14.63.63,0,0,0-.17.52,5.78,5.78,0,0,1,3,2,5.57,5.57,0,0,1,1.15,3.47,5.33,5.33,0,0,1-1.75,4,5.9,5.9,0,0,1-4.2,1.69,5.75,5.75,0,0,1-4.16-1.69,5.33,5.33,0,0,1-1.75-4,5.66,5.66,0,0,1,1.11-3.47,4.39,4.39,0,0,1-1.31-3.14,4.93,4.93,0,0,1,1.17-3.44,12.9,12.9,0,0,1,3.89-2.36,5.75,5.75,0,0,0,1.69-1A1.4,1.4,0,0,0,207.44,124.49Z"/></svg>